<svg width="24" height="24" viewBox="0 0 24 24" fill="none" xmlns="http://www.w3.org/2000/svg">
<path d="M19.624 5.0883C18.222 4.4448 16.718 3.9708 15.146 3.6993C15.1175 3.6943 15.089 3.7073 15.074 3.7333C14.8805 4.0773 14.6665 4.5258 14.5165 4.8788C12.8255 4.6258 11.143 4.6258 9.48699 4.8788C9.33699 4.5183 9.11499 4.0773 8.92049 3.7333C8.90549 3.7078 8.87699 3.6948 8.84849 3.6993C7.27699 3.9698 5.77349 4.4438 4.37049 5.0883C4.35849 5.0933 4.34799 5.1023 4.34099 5.1138C1.48899 9.3748 0.707488 13.5313 1.09099 17.6358C1.09249 17.6558 1.10399 17.6753 1.11949 17.6873C3.00099 19.0693 4.82399 19.9083 6.61299 20.4643C6.64149 20.4728 6.67199 20.4628 6.68999 20.4388C7.11299 19.8608 7.49049 19.2518 7.81399 18.6108C7.83299 18.5733 7.81499 18.5288 7.77599 18.5138C7.17749 18.2868 6.60799 18.0103 6.05999 17.6958C6.01649 17.6703 6.01299 17.6083 6.05299 17.5788C6.16849 17.4923 6.28349 17.4023 6.39399 17.3118C6.41399 17.2953 6.44149 17.2918 6.46499 17.3023C10.0655 18.9463 13.9635 18.9463 17.5215 17.3023C17.545 17.2908 17.5725 17.2943 17.5935 17.3108C17.7035 17.4018 17.819 17.4923 17.935 17.5788C17.975 17.6083 17.9725 17.6703 17.929 17.6958C17.381 18.0163 16.811 18.2868 16.212 18.5128C16.173 18.5278 16.1555 18.5728 16.1745 18.6108C16.505 19.2508 16.882 19.8598 17.2975 20.4378C17.315 20.4623 17.346 20.4728 17.3745 20.4638C19.172 19.9078 20.995 19.0688 22.8765 17.6868C22.893 17.6748 22.9035 17.6563 22.905 17.6363C23.3635 12.8908 22.1365 8.7688 19.6525 5.1143C19.6465 5.1023 19.636 5.0933 19.624 5.0883ZM8.35149 15.1363C7.26749 15.1363 6.37449 14.1413 6.37449 12.9188C6.37449 11.6963 7.25049 10.7013 8.35149 10.7013C9.46149 10.7013 10.346 11.7053 10.3285 12.9188C10.329 14.1408 9.45299 15.1363 8.35149 15.1363ZM15.662 15.1363C14.578 15.1363 13.685 14.1413 13.685 12.9188C13.685 11.6963 14.561 10.7013 15.662 10.7013C16.772 10.7013 17.6565 11.7053 17.639 12.9188C17.639 14.1408 16.772 15.1363 15.662 15.1363Z" fill="white"/>
</svg>
