<svg width="24" height="24" viewBox="0 0 24 24" fill="none" xmlns="http://www.w3.org/2000/svg">
<path d="M7.5 12.4999V9.50006H10H10.5V9.00006V6.69906C10.5 5.29073 10.9552 4.25553 11.674 3.57086C12.3968 2.88239 13.4371 2.50006 14.693 2.50006L14.6941 2.50006C15.4412 2.49843 16.1876 2.52942 16.931 2.59303V4.81806H15.563C14.7754 4.81806 14.1687 4.98767 13.8185 5.48362C13.6542 5.71623 13.5792 5.97845 13.5418 6.22753C13.5047 6.47411 13.5 6.7414 13.5 7.00006V9.00006V9.50006H14H16.9643L16.6201 12.4962L13.9998 12.4971L13.5 12.4972V12.9971V21.5001H10.5V12.9991V12.4989L9.99983 12.4991L7.5 12.4999Z" stroke="white"/>
</svg>
