<svg width="24" height="24" viewBox="0 0 24 24" fill="none" xmlns="http://www.w3.org/2000/svg">
<path d="M7.19995 19.9999H3.19995V7.9999H7.19995V19.9999ZM5.20075 6.3999C4.09435 6.3999 3.19995 5.5031 3.19995 4.3991C3.19995 3.2951 4.09595 2.3999 5.20075 2.3999C6.30315 2.3999 7.19995 3.2967 7.19995 4.3991C7.19995 5.5031 6.30315 6.3999 5.20075 6.3999ZM21.6 19.9999H17.7544V14.1599C17.7544 12.7671 17.728 10.9759 15.7552 10.9759C13.7528 10.9759 13.4448 12.4927 13.4448 14.0591V19.9999H9.59995V7.9911H13.2912V9.6319H13.3432C13.8568 8.6879 15.112 7.6927 16.984 7.6927C20.88 7.6927 21.6 10.1799 21.6 13.4135V19.9999Z" fill="white"/>
</svg>
