<svg width="24" height="24" viewBox="0 0 24 24" fill="none" xmlns="http://www.w3.org/2000/svg">
<path d="M21.1 13.4135V19.4999H18.2544V14.1599V14.1589C18.2544 13.4852 18.2544 12.5858 17.9576 11.8571C17.8031 11.4774 17.5602 11.1211 17.1803 10.8636C16.8004 10.6062 16.3253 10.4759 15.7552 10.4759C15.1918 10.4759 14.7117 10.5827 14.3129 10.7968C13.9107 11.0128 13.6194 11.3228 13.4145 11.6828C13.0179 12.3795 12.9448 13.2656 12.9448 14.0591V19.4999H10.1V8.4911H12.7912V9.6319V10.1319H13.2912H13.3432H13.6403L13.7824 9.87086C14.2098 9.08524 15.298 8.1927 16.984 8.1927C18.8151 8.1927 19.7843 8.76785 20.3337 9.61303C20.9156 10.5081 21.1 11.8088 21.1 13.4135ZM6.69995 19.4999H3.69995V8.4999H6.69995V19.4999ZM5.20075 5.8999C4.37088 5.8999 3.69995 5.22735 3.69995 4.3991C3.69995 3.57164 4.3717 2.8999 5.20075 2.8999C6.02701 2.8999 6.69995 3.57284 6.69995 4.3991C6.69995 5.22722 6.02675 5.8999 5.20075 5.8999Z" stroke="white"/>
</svg>
