<svg width="24" height="24" viewBox="0 0 24 24" fill="none" xmlns="http://www.w3.org/2000/svg">
<path d="M14.1298 1.6001C12.4521 1.6001 11.2001 2.97061 11.2001 4.52979V7.22822C8.99984 7.34497 6.98766 7.93159 5.38132 8.85166C4.7623 8.25722 3.93342 7.99326 3.12976 7.99385C2.25841 7.99449 1.36763 8.29643 0.753195 8.9876L0.739133 9.00322L0.72507 9.01885C0.135654 9.75548 -0.0977344 10.7423 0.0594455 11.722C0.202991 12.6167 0.721168 13.5148 1.62195 14.1032C1.61605 14.2025 1.60007 14.2998 1.60007 14.4001C1.60007 18.3697 6.26567 21.6001 12.0001 21.6001C17.7345 21.6001 22.4001 18.3697 22.4001 14.4001C22.4001 14.2998 22.3841 14.2025 22.3782 14.1032C23.279 13.5148 23.7972 12.6167 23.9407 11.722C24.0979 10.7423 23.8645 9.75548 23.2751 9.01885L23.261 9.00322L23.2469 8.9876C22.6324 8.29633 21.7418 7.99449 20.8704 7.99385C20.0667 7.99326 19.2377 8.257 18.6188 8.85166C17.0125 7.93159 15.0003 7.34497 12.8001 7.22822V4.52979C12.8001 3.74656 13.2522 3.2001 14.1298 3.2001C14.5463 3.2001 15.0538 3.40882 15.8485 3.6876C16.5204 3.92326 17.3947 4.16146 18.5126 4.23291C18.78 5.02337 19.5223 5.6001 20.4001 5.6001C21.5001 5.6001 22.4001 4.7001 22.4001 3.6001C22.4001 2.5001 21.5001 1.6001 20.4001 1.6001C19.649 1.6001 18.9981 2.02443 18.6563 2.64072C17.7007 2.5878 16.9987 2.39586 16.3782 2.17822C15.6551 1.9246 14.9908 1.6001 14.1298 1.6001ZM3.12976 9.59385C3.44587 9.59362 3.74621 9.67657 3.99382 9.81104C3.11063 10.5482 2.44053 11.4096 2.03601 12.3501C1.82122 12.085 1.69179 11.7873 1.6407 11.4688C1.55448 10.9315 1.71529 10.3729 1.97038 10.0423C2.21144 9.78281 2.65164 9.5942 3.12976 9.59385ZM20.8688 9.59385C21.3471 9.5942 21.7888 9.78289 22.0298 10.0423C22.2849 10.3729 22.4457 10.9315 22.3594 11.4688C22.3084 11.7873 22.1789 12.085 21.9641 12.3501C21.5596 11.4096 20.8895 10.5482 20.0063 9.81104C20.2534 9.67673 20.5528 9.59362 20.8688 9.59385ZM8.00007 11.2001C8.88407 11.2001 9.60007 11.9161 9.60007 12.8001C9.60007 13.6841 8.88407 14.4001 8.00007 14.4001C7.11607 14.4001 6.40007 13.6841 6.40007 12.8001C6.40007 11.9161 7.11607 11.2001 8.00007 11.2001ZM16.0001 11.2001C16.8841 11.2001 17.6001 11.9161 17.6001 12.8001C17.6001 13.6841 16.8841 14.4001 16.0001 14.4001C15.1161 14.4001 14.4001 13.6841 14.4001 12.8001C14.4001 11.9161 15.1161 11.2001 16.0001 11.2001ZM16.1907 15.6267C15.6795 17.1203 14.0449 18.4001 12.0001 18.4001C9.95527 18.4001 8.32065 17.1209 7.80945 15.7345C8.72945 16.4809 10.2625 17.0142 12.0001 17.0142C13.7377 17.0142 15.2707 16.4803 16.1907 15.6267Z" fill="white"/>
</svg>
