<svg width="24" height="24" viewBox="0 0 24 24" fill="none" xmlns="http://www.w3.org/2000/svg">
<path d="M12 5.625C5.60175 5.625 4.74737 5.69165 3.92725 6.5354C3.10712 7.37915 3 8.7195 3 12C3 15.2805 3.10712 16.6212 3.92725 17.4646C4.74737 18.308 5.60175 18.375 12 18.375C18.3983 18.375 19.2526 18.308 20.0728 17.4646C20.8929 16.6208 21 15.2805 21 12C21 8.7195 20.8929 7.37915 20.0728 6.5354C19.2526 5.69165 18.3983 5.625 12 5.625ZM12 7.125C17.2384 7.125 18.5172 7.14841 18.9507 7.58716C19.3842 8.02591 19.5 9.20175 19.5 12C19.5 14.7983 19.3842 15.9741 18.9507 16.4128C18.5172 16.8516 17.2384 16.875 12 16.875C6.76163 16.875 5.48282 16.8516 5.04932 16.4128C4.61582 15.9741 4.51172 14.7983 4.51172 12C4.51172 9.20175 4.61582 8.02591 5.04932 7.58716C5.48282 7.14841 6.76163 7.125 12 7.125ZM10.481 9.38159V14.6184L15.0359 11.9795L10.481 9.38159Z" fill="white"/>
</svg>
