<svg width="201" height="127" viewBox="0 0 201 127" fill="none" xmlns="http://www.w3.org/2000/svg">
<path d="M115.745 40.1989L98.6342 23.0866L95.3644 26.3563L109.202 40.1989L98.0657 51.3351L75.1237 28.3864V4.62371H114.537C115.342 4.62256 116.134 4.83002 116.835 5.22585C119.331 6.63365 124.129 9.9202 125.514 14.9812C126.61 18.9826 125.364 23.4785 121.813 28.341L125.32 31.419C129.755 25.3488 131.469 19.1659 129.967 13.7282C127.466 4.66744 117.534 0.366667 117.112 0.18838C116.826 0.0652481 116.519 0.00117176 116.207 0H70.5V30.3022L98.0657 57.8695L115.745 40.1989Z" fill="white"/>
<path d="M124.052 35.5214L97.5325 9.00189L80.3916 26.1444L97.8537 43.6065L101.123 40.3368L86.9311 26.1444L97.5274 15.5481L120.791 38.8045L120.821 38.8365C121.112 39.1174 127.885 45.7931 124.447 52.6757C121.083 59.4035 115.324 61.3697 114.123 61.7129H75.1237V38.0594L70.5 33.2574V66.3366H114.688L114.941 66.2794C115.304 66.197 123.887 64.15 128.59 54.7445C133.494 44.9336 124.671 36.1201 124.052 35.5214Z" fill="white"/>
<path d="M10.112 113.561C8.46933 113.561 6.99733 113.294 5.696 112.761C4.39467 112.227 3.34933 111.438 2.56 110.393C1.792 109.347 1.38667 108.089 1.344 106.617H7.168C7.25333 107.449 7.54133 108.089 8.032 108.537C8.52267 108.963 9.16267 109.177 9.952 109.177C10.7627 109.177 11.4027 108.995 11.872 108.633C12.3413 108.249 12.576 107.726 12.576 107.065C12.576 106.51 12.384 106.051 12 105.689C11.6373 105.326 11.1787 105.027 10.624 104.793C10.0907 104.558 9.32267 104.291 8.32 103.993C6.86933 103.545 5.68533 103.097 4.768 102.649C3.85067 102.201 3.06133 101.539 2.4 100.665C1.73867 99.7899 1.408 98.6485 1.408 97.2405C1.408 95.1499 2.16533 93.5179 3.68 92.3445C5.19467 91.1499 7.168 90.5525 9.6 90.5525C12.0747 90.5525 14.0693 91.1499 15.584 92.3445C17.0987 93.5179 17.9093 95.1605 18.016 97.2725H12.096C12.0533 96.5472 11.7867 95.9819 11.296 95.5765C10.8053 95.1499 10.176 94.9365 9.408 94.9365C8.74667 94.9365 8.21333 95.1179 7.808 95.4805C7.40267 95.8219 7.2 96.3232 7.2 96.9845C7.2 97.7099 7.54133 98.2752 8.224 98.6805C8.90667 99.0859 9.97333 99.5232 11.424 99.9925C12.8747 100.483 14.048 100.953 14.944 101.401C15.8613 101.849 16.6507 102.499 17.312 103.353C17.9733 104.206 18.304 105.305 18.304 106.649C18.304 107.929 17.9733 109.091 17.312 110.137C16.672 111.182 15.7333 112.014 14.496 112.633C13.2587 113.251 11.7973 113.561 10.112 113.561ZM36.2715 101.817C37.5728 102.094 38.6182 102.745 39.4075 103.769C40.1968 104.771 40.5915 105.923 40.5915 107.225C40.5915 109.102 39.9302 110.595 38.6075 111.705C37.3062 112.793 35.4822 113.337 33.1355 113.337H22.6715V90.8725H32.7835C35.0662 90.8725 36.8475 91.3952 38.1275 92.4405C39.4288 93.4859 40.0795 94.9045 40.0795 96.6965C40.0795 98.0192 39.7275 99.1179 39.0235 99.9925C38.3408 100.867 37.4235 101.475 36.2715 101.817ZM28.1435 99.9605H31.7275C32.6235 99.9605 33.3062 99.7685 33.7755 99.3845C34.2662 98.9792 34.5115 98.3925 34.5115 97.6245C34.5115 96.8565 34.2662 96.2699 33.7755 95.8645C33.3062 95.4592 32.6235 95.2565 31.7275 95.2565H28.1435V99.9605ZM32.1755 108.921C33.0928 108.921 33.7968 108.718 34.2875 108.313C34.7995 107.886 35.0555 107.278 35.0555 106.489C35.0555 105.699 34.7888 105.081 34.2555 104.633C33.7435 104.185 33.0288 103.961 32.1115 103.961H28.1435V108.921H32.1755ZM73.6345 90.8725L65.6665 113.337H58.8185L50.8505 90.8725H56.6745L62.2425 107.833L67.8425 90.8725H73.6345ZM82.3935 95.2565V99.8005H89.7215V104.025H82.3935V108.953H90.6815V113.337H76.9215V90.8725H90.6815V95.2565H82.3935ZM115.33 113.337H109.858L100.706 99.4805V113.337H95.234V90.8725H100.706L109.858 104.793V90.8725H115.33V113.337ZM136.457 90.8725V95.2565H130.505V113.337H125.033V95.2565H119.081V90.8725H136.457ZM145.579 90.8725V104.313C145.579 105.657 145.909 106.691 146.571 107.417C147.232 108.142 148.203 108.505 149.483 108.505C150.763 108.505 151.744 108.142 152.427 107.417C153.109 106.691 153.451 105.657 153.451 104.313V90.8725H158.923V104.281C158.923 106.286 158.496 107.982 157.643 109.369C156.789 110.755 155.637 111.801 154.187 112.505C152.757 113.209 151.157 113.561 149.387 113.561C147.616 113.561 146.027 113.219 144.619 112.537C143.232 111.833 142.133 110.787 141.323 109.401C140.512 107.993 140.107 106.286 140.107 104.281V90.8725H145.579ZM175.221 113.337L170.549 104.857H169.237V113.337H163.765V90.8725H172.949C174.72 90.8725 176.224 91.1819 177.461 91.8005C178.72 92.4192 179.659 93.2725 180.277 94.3605C180.896 95.4272 181.205 96.6219 181.205 97.9445C181.205 99.4379 180.779 100.771 179.925 101.945C179.093 103.118 177.856 103.95 176.213 104.441L181.397 113.337H175.221ZM169.237 100.985H172.629C173.632 100.985 174.379 100.739 174.869 100.249C175.381 99.7579 175.637 99.0645 175.637 98.1685C175.637 97.3152 175.381 96.6432 174.869 96.1525C174.379 95.6619 173.632 95.4165 172.629 95.4165H169.237V100.985ZM191.112 95.2565V99.8005H198.44V104.025H191.112V108.953H199.4V113.337H185.64V90.8725H199.4V95.2565H191.112Z" fill="white"/>
</svg>
