<svg width="646" height="714" viewBox="0 0 646 714" fill="none" xmlns="http://www.w3.org/2000/svg">
<path d="M416.914 432.318L268.33 283.681L302.816 249.195L486.275 432.672L296.697 622.159L0.5 325.944V0.5H491.96C495.242 0.512483 498.488 1.18828 501.503 2.4868L501.506 2.48819C503.755 3.43808 531.573 15.4702 562.183 39.436C592.798 63.4046 626.163 99.2754 639.583 147.893C655.658 206.091 637.41 272.314 589.964 337.435L552.973 304.968C591.031 252.707 604.441 204.286 592.609 161.115C577.653 106.433 525.838 70.9723 498.959 55.8118C491.339 51.5089 482.734 49.2538 473.983 49.2663H49.7663H49.2663V49.7663V305.532V305.739L49.4127 305.885L296.344 552.888L296.697 553.242L297.051 552.888L416.914 433.025L417.267 432.672L416.914 432.318Z" stroke="white"/>
<path d="M576.042 382.681L576.048 382.686C579.36 385.89 604.72 411.169 622.66 448.812C640.596 486.448 651.094 536.393 624.791 589.008C574.275 690.041 482.077 712.022 478.218 712.897L475.558 713.5H0.5V359.2L49.2663 409.847V664.234V664.734H49.7663H469.531H469.601L469.668 664.714C482.657 661.003 544.8 639.781 581.097 567.188C599.698 529.949 590.659 493.288 576.631 465.614C562.628 437.991 543.618 419.245 541.974 417.658C541.972 417.655 541.969 417.652 541.966 417.649L541.656 417.321L541.646 417.311L291.258 166.995L290.904 166.642L290.551 166.995L176.499 281.047L176.145 281.4L176.499 281.754L328.902 434.157L294.416 468.643L107.173 281.4L290.958 97.5973L576.042 382.681Z" stroke="white"/>
</svg>
