<svg width="178" height="32" viewBox="0 0 178 32" fill="none" xmlns="http://www.w3.org/2000/svg">
<path fill-rule="evenodd" clip-rule="evenodd" d="M0 0H21.9589C22.1389 0.000679138 22.3168 0.0376714 22.4821 0.10876C22.5987 0.158063 23.8468 0.699815 25.2195 1.77455C26.594 2.85063 28.1142 4.47744 28.7274 6.699C29.4675 9.37836 28.6143 12.3915 26.4817 15.3103L26.327 15.522L24.2989 13.7419L24.4281 13.5649C26.0924 11.2857 26.643 9.22498 26.1488 7.42161L26.1487 7.42149C25.5185 5.11714 23.3177 3.59687 22.1383 2.93171L22.1382 2.93165C21.8412 2.76393 21.5059 2.67603 21.1648 2.67652H2.67652V13.6286L13.3379 24.2931L18.2903 19.3406L11.7153 12.7632L13.608 10.8705L22.0774 19.3407L13.3378 28.0761L0 14.7375V0ZM38.0945 9.59188C39.0012 8.66509 40.381 8.14867 42.2657 8.14867H50.925V11.7315H42.1682C41.491 11.7315 41.0595 11.9134 40.7975 12.1709C40.5357 12.428 40.3924 12.8099 40.3924 13.3139C40.3924 13.754 40.5045 14.1311 40.7792 14.4013C41.0548 14.6725 41.5548 14.8955 42.4591 14.8955H46.2953C48.5935 14.8955 50.0835 15.5348 50.9919 16.5478C51.8936 17.5534 52.1638 18.863 52.1638 20.0847C52.1638 21.529 51.777 22.8334 50.8539 23.7766C49.9291 24.7217 48.519 25.25 46.5862 25.25H37.1005V21.6671H46.6821C47.3949 21.6671 47.8581 21.4732 48.1425 21.1959C48.4263 20.9191 48.5802 20.5123 48.5802 19.988C48.5802 19.5139 48.4568 19.1134 48.1593 18.8276C47.8592 18.5392 47.3215 18.3089 46.3672 18.3089H42.5566C40.3055 18.3089 38.8458 17.6755 37.956 16.6779C37.0731 15.6881 36.8088 14.4033 36.8088 13.2164C36.8088 11.7967 37.1897 10.5168 38.0945 9.59188ZM56.6081 8.14867C56.0965 8.14867 55.6479 8.2694 55.3303 8.58278C55.0117 8.89711 54.8898 9.34103 54.8898 9.84298V23.5557C54.8898 24.0576 55.0117 24.5015 55.3303 24.8159C55.6479 25.1292 56.0965 25.25 56.6081 25.25H63.8896C65.8733 25.25 67.343 24.7633 68.3197 23.8833C69.3017 22.9985 69.7341 21.7626 69.7341 20.3764C69.7341 19.3735 69.5022 18.5239 69.0428 17.8348C68.7168 17.3459 68.2853 16.951 67.7655 16.6423C68.2682 16.3486 68.684 15.9727 68.9974 15.5012C69.4432 14.8306 69.6614 13.9973 69.6614 12.9982C69.6614 11.5886 69.2297 10.3567 68.245 9.48296C67.267 8.61525 65.7971 8.14867 63.8169 8.14867H56.6081ZM58.422 15.0658L58.4199 11.6827H63.912C64.7326 11.6827 65.2568 11.8823 65.5741 12.1736C65.8866 12.4605 66.0522 12.8862 66.0522 13.4594C66.0522 14.0478 65.8745 14.4197 65.5664 14.6587C65.2396 14.9121 64.7038 15.0658 63.888 15.0658H58.422ZM58.4224 21.6911L58.4259 18.1635H63.9647C64.7575 18.1635 65.2914 18.3369 65.6229 18.6159C65.9433 18.8856 66.129 19.3002 66.129 19.9153C66.129 20.5101 65.9532 20.9335 65.6348 21.2145C65.3088 21.5022 64.7768 21.6911 63.9647 21.6911H58.4224ZM71.7938 18.4697L78.5007 18.4813V20.911L71.7938 20.8984V18.4697ZM82.4967 13.2156H79.5497L83.5213 23.7605C83.7572 24.3834 84.1278 24.8187 84.6143 25.091C85.092 25.3585 85.6505 25.4513 86.2377 25.4513C86.8627 25.4513 87.4197 25.3448 87.8862 25.0679C88.3589 24.7873 88.7027 24.3533 88.936 23.7659L93.1209 13.2156H90.1507L86.4588 22.5395C86.4183 22.6308 86.3838 22.6633 86.3655 22.6761C86.3498 22.687 86.3177 22.7037 86.2377 22.7037H86.2258L86.2139 22.7045C86.1731 22.7072 86.1327 22.6959 86.0992 22.6726C86.0657 22.6493 86.0411 22.6152 86.0295 22.5761L86.0258 22.5634L82.4967 13.2156ZM94.6894 14.1695C95.3919 13.5463 96.4372 13.2156 97.8221 13.2156H103.846V15.9129H97.8221C97.2762 15.9129 96.948 16.0402 96.759 16.2078C96.5773 16.369 96.4714 16.6148 96.4714 16.9782C96.4714 17.3571 96.5871 17.5727 96.7654 17.7084C96.9633 17.8589 97.3015 17.9596 97.8388 17.9596H103.763V20.4723H97.7885C97.2564 20.4723 96.919 20.5796 96.7202 20.7366C96.5375 20.881 96.4211 21.1081 96.4211 21.4873C96.4211 21.8542 96.5325 22.1002 96.7184 22.2612C96.9127 22.4295 97.243 22.5526 97.7717 22.5526H103.864V25.2499H97.7717C96.3757 25.2499 95.3338 24.9053 94.6383 24.2746C93.9379 23.6397 93.6399 22.7615 93.6399 21.8062C93.6399 21.1057 93.7997 20.4949 94.1199 19.993C94.3187 19.6813 94.5739 19.4203 94.8768 19.2091C94.5728 18.9972 94.3215 18.7358 94.1283 18.4257C93.8191 17.9294 93.6734 17.332 93.6734 16.6601C93.6734 15.6785 93.9804 14.7985 94.6894 14.1695ZM108.832 13.0142C107.885 13.0142 107.133 13.2815 106.618 13.7993C106.104 14.3163 105.874 15.0343 105.874 15.8385V25.2499H108.571L108.575 15.9361C108.575 15.8041 108.612 15.7434 108.642 15.7149C108.671 15.6856 108.742 15.6419 108.903 15.6419C109.026 15.6419 109.086 15.6673 109.124 15.6937C109.165 15.7229 109.219 15.7817 109.279 15.9158L109.28 15.9168L112.576 23.1296C112.821 23.7974 113.145 24.3837 113.647 24.8013C114.161 25.2284 114.822 25.4481 115.675 25.4481C116.614 25.4481 117.366 25.1813 117.883 24.6629C118.399 24.1451 118.633 23.4241 118.633 22.611V13.2164H115.916V22.5271C115.916 22.6412 115.881 22.7013 115.848 22.7335C115.813 22.7667 115.742 22.8068 115.605 22.8068C115.492 22.8068 115.42 22.7773 115.367 22.7398C115.312 22.7 115.258 22.6365 115.21 22.5414L111.914 15.3327C111.67 14.6666 111.35 14.0802 110.853 13.6622C110.343 13.234 109.685 13.0142 108.832 13.0142ZM119.921 13.2156H129.243V15.9129H125.94V25.2499H123.223V15.9129H119.921V13.2156ZM133.216 13.2156H130.483V21.2867C130.483 22.536 130.809 23.5439 131.512 24.2371C132.214 24.9294 133.233 25.2499 134.497 25.2499H136.878C138.141 25.2499 139.164 24.9294 139.87 24.2379C140.577 23.5452 140.908 22.5372 140.908 21.2867V13.2156H138.244V21.1357C138.244 21.6377 138.114 21.9756 137.898 22.1899C137.682 22.4045 137.322 22.5526 136.743 22.5526H134.733C134.135 22.5526 133.773 22.4033 133.558 22.1899C133.343 21.9769 133.216 21.6403 133.216 21.1357V13.2156ZM142.99 13.2156H149.484C150.835 13.2156 151.847 13.6356 152.519 14.3414C153.188 15.0433 153.482 15.9865 153.482 16.9614C153.482 18.3546 152.863 19.9021 151.255 20.5618L153.981 25.2499H150.955L148.374 20.8751H145.704V25.2499H143.007V20.4148C143.007 19.738 143.147 19.1737 143.535 18.7861C143.923 18.3983 144.483 18.2617 145.143 18.2617H149.551C150.024 18.2617 150.313 18.1034 150.488 17.9C150.672 17.6878 150.768 17.385 150.768 17.0454C150.768 16.7132 150.668 16.4361 150.487 16.2447C150.31 16.0575 150.018 15.9129 149.551 15.9129H142.99V13.2156ZM158.905 13.2156C157.518 13.2156 156.473 13.5462 155.771 14.1697C155.063 14.7989 154.757 15.6789 154.757 16.6601C154.757 17.3319 154.903 17.9293 155.212 18.4256C155.405 18.7357 155.656 18.9972 155.96 19.2091C155.657 19.4203 155.402 19.6814 155.203 19.9931C154.883 20.495 154.724 21.1058 154.724 21.8062C154.724 22.7614 155.022 23.6396 155.722 24.2746C156.417 24.9053 157.459 25.2499 158.855 25.2499H164.947V22.5526H158.855C158.326 22.5526 157.996 22.4295 157.802 22.2613C157.616 22.1004 157.505 21.8544 157.505 21.4873C157.505 21.1081 157.621 20.881 157.804 20.7366C158.003 20.5796 158.34 20.4723 158.872 20.4723H164.847V17.9596H158.922C158.385 17.9596 158.047 17.859 157.849 17.7084C157.671 17.5728 157.555 17.3571 157.555 16.9782C157.555 16.6148 157.661 16.3689 157.843 16.2078C158.032 16.0401 158.36 15.9129 158.905 15.9129H164.93V13.2156H158.905ZM167.379 14.2458C168.031 13.578 169.016 13.2156 170.336 13.2156H176.43V15.9129H170.27C169.822 15.9129 169.555 16.0332 169.401 16.1848C169.247 16.336 169.155 16.5678 169.155 16.8943C169.155 17.1805 169.227 17.4075 169.389 17.5661C169.551 17.7257 169.864 17.8757 170.473 17.8757H173.122C174.73 17.8757 175.794 18.3232 176.449 19.0536C177.098 19.7765 177.287 20.7128 177.287 21.5712C177.287 22.5876 177.015 23.5204 176.351 24.1989C175.685 24.8793 174.678 25.2499 173.323 25.2499H166.66V22.5526H173.39C173.863 22.5526 174.151 22.4245 174.321 22.2588C174.491 22.0937 174.59 21.8445 174.59 21.5041C174.59 21.1949 174.51 20.9521 174.334 20.7827C174.155 20.6108 173.816 20.4555 173.172 20.4555H170.54C168.965 20.4555 167.922 20.0117 167.28 19.2919C166.645 18.58 166.46 17.6612 166.46 16.8272C166.46 15.8276 166.728 14.9117 167.379 14.2458ZM13.0845 4.17803L25.8522 16.9458L25.8536 16.9471C26.0152 17.1036 27.1554 18.2432 27.9643 19.9405C28.7772 21.6463 29.2656 23.9402 28.0562 26.3594C25.7734 30.925 21.6068 31.9221 21.4093 31.9669L21.2632 32H0V15.4477L2.67652 18.2274V29.3235H20.9337C21.5392 29.1445 24.1319 28.2159 25.6589 25.1619C26.428 23.622 26.0624 22.097 25.4624 20.9133C24.8621 19.7293 24.0445 18.9245 23.9837 18.8658L23.9799 18.8621L23.964 18.8454L13.0821 7.96665L8.38622 12.6626L15.1299 19.4062L13.2372 21.2989L4.60079 12.6626L13.0845 4.17803Z" fill="url(#paint0_linear_35_514)"/>
<defs>
<linearGradient id="paint0_linear_35_514" x1="57.5" y1="3.5" x2="56.7849" y2="23.3197" gradientUnits="userSpaceOnUse">
<stop stop-color="#E5BA5D"/>
<stop offset="0.378125" stop-color="#E5BA5D"/>
<stop offset="0.648958" stop-color="white"/>
<stop offset="0.794792" stop-color="#FAF2B9"/>
</linearGradient>
</defs>
</svg>
