<svg width="112" height="124" viewBox="0 0 112 124" fill="none" xmlns="http://www.w3.org/2000/svg">
<path d="M84.4568 75.0378L52.5171 43.0949L46.4136 49.1984L72.2436 75.0378L51.4559 95.8255L8.63092 52.988V8.63092H82.2026C83.7053 8.62878 85.1829 9.01603 86.4913 9.75492C91.1506 12.3828 100.108 18.5177 102.692 27.9649C104.739 35.4342 102.413 43.8265 95.7847 52.9032L102.331 58.6488C110.61 47.3178 113.81 35.7764 111.006 25.6259C106.337 8.71255 87.7974 0.684445 87.0094 0.351642C86.4758 0.121796 85.9012 0.00218728 85.3203 0H0V56.5641L51.4559 108.023L84.4568 75.0378Z" fill="white"/>
<path d="M99.9636 66.3066L50.4606 16.8036L18.4643 48.803L51.0603 81.3989L57.1638 75.2954L30.6713 48.803L50.4512 29.0231L93.8758 72.4352L93.9323 72.4948C94.4755 73.0192 107.119 85.4805 100.701 98.328C94.4221 110.887 83.6719 114.557 81.4302 115.197H8.63092V71.0443L0 62.0806V123.828H82.4851L82.9561 123.722C83.6343 123.568 99.6559 119.747 108.434 102.19C117.59 83.8761 101.119 67.4243 99.9636 66.3066Z" fill="white"/>
</svg>
