<svg width="200" height="200" viewBox="0 0 200 200" fill="none" xmlns="http://www.w3.org/2000/svg">
<path d="M100 200C155.228 200 200 155.228 200 100C200 44.7715 155.228 0 100 0C44.7715 0 0 44.7715 0 100C0 155.228 44.7715 200 100 200Z" fill="url(#paint0_linear_61_62)"/>
<path d="M157.446 62.4333L136.721 48.5571C135.655 47.8493 134.299 47.7813 133.173 48.3845C132.053 48.9872 131.351 50.163 131.351 51.4435V79.1962C131.351 80.4767 132.053 81.6524 133.173 82.2552C134.289 82.8528 135.646 82.7985 136.721 82.0825L157.446 68.2063C158.404 67.5626 158.984 66.4786 158.984 65.32C158.984 64.1614 158.404 63.077 157.446 62.4333ZM86.5004 79.2466C86.507 81.1606 88.052 82.7056 89.9547 82.7056H89.968L107.232 82.6548C111.179 82.6446 114.727 80.429 116.488 76.8688L119.916 69.9306C123.332 63.036 118.318 54.8923 110.632 54.8923H110.605L103.62 54.906C105.803 51.9884 107.13 48.3899 107.118 44.4716C107.111 42.5606 105.566 41.0161 103.663 41.0161C103.657 41.0161 103.657 41.0161 103.65 41.0161C101.741 41.0231 100.202 42.5813 100.209 44.4989C100.229 50.1649 95.7023 54.7935 90.0797 54.9329L89.8805 54.9333C87.9711 54.9368 86.4262 56.4915 86.4332 58.4091C86.4332 58.4134 86.4359 58.4165 86.4359 58.4204C86.4359 58.4243 86.4332 58.4286 86.4332 58.4329L86.5004 79.2466ZM58.8938 83.0985C59.4941 83.0985 60.0945 82.9427 60.6273 82.6274C74.6734 74.4325 76.7719 65.3399 76.7719 60.6478C76.7719 53.381 72.0898 47.6896 66.1059 47.6896C63.1172 47.6896 60.6816 48.8618 58.8938 50.2915C57.1059 48.8618 54.6703 47.6896 51.6816 47.6896C45.6977 47.6896 41.0156 53.381 41.0156 60.6478C41.0156 65.3399 43.1137 74.4325 57.1598 82.6274C57.693 82.9427 58.2934 83.0985 58.8938 83.0985ZM141.713 89.6032C139.804 89.6032 138.259 91.1548 138.259 93.072V124.294H124.442V113.886C124.442 111.969 122.897 110.417 120.988 110.417H103.717V93.072C103.717 91.1544 102.172 89.6032 100.262 89.6032C98.3531 89.6032 96.8082 91.1548 96.8082 93.072V110.417H79.5371C77.6277 110.417 76.0828 111.969 76.0828 113.886V124.294H62.266V93.072C62.266 91.1544 60.7211 89.6032 58.8117 89.6032C56.9023 89.6032 55.3574 91.1548 55.3574 93.072V127.763C55.3574 129.681 56.9023 131.232 58.8117 131.232H76.0828V141.639C76.0828 143.557 77.6277 145.108 79.5371 145.108H96.8082V152.047H93.3539C91.4445 152.047 89.8996 153.598 89.8996 155.516C89.8996 157.433 91.4453 158.984 93.3547 158.984H107.171C109.081 158.984 110.626 157.433 110.626 155.515C110.626 153.598 109.081 152.046 107.171 152.046H103.717V145.108H120.988C122.898 145.108 124.443 143.556 124.443 141.639V131.232H141.714C143.623 131.232 145.168 129.68 145.168 127.763V93.0716C145.168 91.1544 143.623 89.6032 141.713 89.6032Z" fill="url(#paint1_linear_61_62)"/>
<defs>
<linearGradient id="paint0_linear_61_62" x1="100" y1="200" x2="100" y2="0" gradientUnits="userSpaceOnUse">
<stop stop-color="#ADDCFF"/>
<stop offset="0.5028" stop-color="#EAF6FF"/>
<stop offset="1" stop-color="#EAF6FF"/>
</linearGradient>
<linearGradient id="paint1_linear_61_62" x1="100" y1="158.984" x2="100" y2="41.0157" gradientUnits="userSpaceOnUse">
<stop stop-color="#00C0FF"/>
<stop offset="1" stop-color="#5558FF"/>
</linearGradient>
</defs>
</svg>
