<svg width="200" height="200" viewBox="0 0 200 200" fill="none" xmlns="http://www.w3.org/2000/svg">
<path d="M100 200C155.228 200 200 155.228 200 100C200 44.7715 155.228 0 100 0C44.7715 0 0 44.7715 0 100C0 155.228 44.7715 200 100 200Z" fill="url(#paint0_linear_35_712)"/>
<path d="M72.2426 68.773C70.3281 68.773 68.773 70.3281 68.773 72.2426C68.773 74.157 70.3281 75.7121 72.2426 75.7121C74.157 75.7121 75.7121 74.157 75.7121 72.2426C75.7121 70.3281 74.157 68.773 72.2426 68.773ZM61.8336 100V106.939C61.8336 108.854 63.3887 110.409 65.3031 110.409H79.1816C81.0961 110.409 82.6516 108.854 82.6516 106.939V100C82.6516 98.082 84.2035 96.5305 86.1211 96.5305H96.5301V89.591H93.0605C87.3207 89.591 82.6516 84.9219 82.6516 79.182V72.2426C82.6516 77.9824 77.9824 82.6516 72.2426 82.6516C66.5027 82.6516 61.8336 77.9824 61.8336 72.2426C61.8336 66.5027 66.5027 61.8336 72.2426 61.8336C77.9824 61.8336 82.6516 66.5027 82.6516 72.2426V65.3031C82.6516 59.5633 87.3207 54.8941 93.0605 54.8941H96.5301V41.0156H51.4246C45.6848 41.0156 41.0156 45.6848 41.0156 51.4246V96.5305H58.3641C60.2816 96.5305 61.8336 98.082 61.8336 100ZM127.757 68.773C125.843 68.773 124.288 70.3281 124.288 72.2426C124.288 74.157 125.843 75.7121 127.757 75.7121C129.672 75.7121 131.227 74.157 131.227 72.2426C131.227 70.3281 129.672 68.773 127.757 68.773ZM148.575 41.0156H103.47V58.3641C103.47 60.282 101.918 61.834 100 61.834H93.0605C91.1461 61.834 89.591 63.3891 89.591 65.3035V79.182C89.591 81.0965 91.1461 82.6516 93.0605 82.6516H100C101.918 82.6516 103.47 84.2035 103.47 86.1215V96.5305H110.409V93.0609C110.409 87.3211 115.078 82.652 120.818 82.652H127.757C122.018 82.652 117.348 77.9828 117.348 72.243C117.348 66.5031 122.018 61.834 127.757 61.834C133.497 61.834 138.166 66.5031 138.166 72.243C138.166 77.9828 133.497 82.652 127.757 82.652H134.697C140.437 82.652 145.106 87.3211 145.106 93.0609V96.5305H158.984V51.4246C158.984 45.6848 154.315 41.0156 148.575 41.0156ZM72.2426 131.227C74.157 131.227 75.7121 129.672 75.7121 127.757C75.7121 125.843 74.157 124.288 72.2426 124.288C70.3281 124.288 68.773 125.843 68.773 127.757C68.773 129.672 70.3281 131.227 72.2426 131.227ZM110.409 134.696V120.818C110.409 118.904 108.854 117.348 106.939 117.348H100C98.082 117.348 96.5305 115.796 96.5305 113.879V103.47H89.591V106.939C89.591 112.679 84.9219 117.348 79.182 117.348H72.2426C77.9824 117.348 82.6516 122.017 82.6516 127.757C82.6516 133.497 77.9824 138.166 72.2426 138.166C66.5027 138.166 61.8336 133.497 61.8336 127.757C61.8336 122.017 66.5027 117.348 72.2426 117.348H65.3031C59.5633 117.348 54.8941 112.679 54.8941 106.939V103.47H41.0156V148.575C41.0156 154.315 45.6848 158.984 51.4246 158.984H96.5305V141.636C96.5305 139.718 98.0824 138.166 100 138.166H106.939C108.854 138.166 110.409 136.611 110.409 134.696ZM127.757 131.227C129.672 131.227 131.227 129.672 131.227 127.757C131.227 125.843 129.672 124.288 127.757 124.288C125.843 124.288 124.288 125.843 124.288 127.757C124.288 129.672 125.843 131.227 127.757 131.227ZM138.166 100V93.0605C138.166 91.1461 136.611 89.591 134.697 89.591H120.818C118.904 89.591 117.348 91.1461 117.348 93.0605V100C117.348 101.918 115.796 103.47 113.879 103.47H103.47V110.409H106.939C112.679 110.409 117.348 115.078 117.348 120.818V127.757C117.348 122.018 122.018 117.348 127.757 117.348C133.497 117.348 138.166 122.018 138.166 127.757C138.166 133.497 133.497 138.166 127.757 138.166C122.018 138.166 117.348 133.497 117.348 127.757V134.697C117.348 140.437 112.679 145.106 106.939 145.106H103.47V158.984H148.576C154.315 158.984 158.984 154.315 158.984 148.575V103.47H141.636C139.718 103.47 138.166 101.918 138.166 100Z" fill="url(#paint1_linear_35_712)"/>
<defs>
<linearGradient id="paint0_linear_35_712" x1="100" y1="200" x2="100" y2="0" gradientUnits="userSpaceOnUse">
<stop stop-color="#ADDCFF"/>
<stop offset="0.5028" stop-color="#EAF6FF"/>
<stop offset="1" stop-color="#EAF6FF"/>
</linearGradient>
<linearGradient id="paint1_linear_35_712" x1="100" y1="158.984" x2="100" y2="41.0156" gradientUnits="userSpaceOnUse">
<stop stop-color="#00C0FF"/>
<stop offset="1" stop-color="#5558FF"/>
</linearGradient>
</defs>
</svg>
