<svg width="200" height="200" viewBox="0 0 200 200" fill="none" xmlns="http://www.w3.org/2000/svg">
<path d="M100 200C155.228 200 200 155.228 200 100C200 44.7715 155.228 0 100 0C44.7715 0 0 44.7715 0 100C0 155.228 44.7715 200 100 200Z" fill="url(#paint0_linear_35_722)"/>
<path d="M88.46 131.673C86.8594 133.835 85.6731 136.329 85.0881 139.079C74.0788 134.737 65.0316 126.518 59.6244 116.094H69.0088C73.6684 123.134 80.465 128.618 88.46 131.673ZM76.2238 63.1919C83.3697 56.9438 92.6891 53.125 102.906 53.125C108.793 53.125 114.379 54.4128 119.433 56.6756C120.03 53.8847 121.61 51.4797 123.763 49.7531C117.43 46.7388 110.373 45 102.906 45C90.4466 45 79.1041 49.7369 70.4753 57.4556C72.8519 58.8531 74.8181 60.8194 76.2238 63.1919ZM117.507 131.617C119.128 133.782 120.306 136.284 120.834 139.039C131.791 134.684 140.793 126.486 146.18 116.094H136.796C132.172 123.089 125.437 128.549 117.507 131.617ZM96.7556 103.333C96.4631 100.242 93.8875 97.8125 90.7188 97.8125C87.355 97.8125 84.625 100.542 84.625 103.906C84.625 107.075 87.0544 109.651 90.1459 109.943C91.5434 107.059 93.8713 104.731 96.7556 103.333ZM92.75 116.094C92.75 121.704 97.2959 126.25 102.906 126.25C108.517 126.25 113.062 121.704 113.062 116.094C113.062 110.483 108.517 105.938 102.906 105.938C97.2959 105.938 92.75 110.483 92.75 116.094ZM56.1306 58.6459C55.8381 55.5544 53.2625 53.125 50.0938 53.125C46.73 53.125 44 55.855 44 59.2188C44 62.3875 46.4294 64.9631 49.5209 65.2556C50.9184 62.3713 53.2463 60.0434 56.1306 58.6459ZM52.125 71.4062C52.125 77.0166 56.6709 81.5625 62.2812 81.5625C67.8916 81.5625 72.4375 77.0166 72.4375 71.4062C72.4375 65.7959 67.8916 61.25 62.2812 61.25C56.6709 61.25 52.125 65.7959 52.125 71.4062ZM130.771 65.2556C132.168 62.3713 134.496 60.0434 137.381 58.6459C137.088 55.5544 134.512 53.125 131.344 53.125C127.98 53.125 125.25 55.855 125.25 59.2188C125.25 62.3875 127.679 64.9631 130.771 65.2556ZM133.375 71.4062C133.375 77.0166 137.921 81.5625 143.531 81.5625C149.142 81.5625 153.688 77.0166 153.688 71.4062C153.688 65.7959 149.142 61.25 143.531 61.25C137.921 61.25 133.375 65.7959 133.375 71.4062ZM102.252 130.329C95.6587 130.674 90.7188 136.589 90.7188 143.191V152.656C90.7188 153.777 91.6287 154.688 92.75 154.688H113.062C114.184 154.688 115.094 153.777 115.094 152.656V142.5C115.094 135.553 109.28 129.963 102.252 130.329ZM74.4688 107.969V97.8125C74.4688 90.8656 68.6553 85.2756 61.6272 85.6413C55.0338 85.9866 50.0938 91.9016 50.0938 98.5031V107.969C50.0938 109.09 51.0037 110 52.125 110H72.4375C73.5588 110 74.4688 109.09 74.4688 107.969ZM142.877 85.6413C136.284 85.9866 131.344 91.9016 131.344 98.5031V107.969C131.344 109.09 132.254 110 133.375 110H153.688C154.809 110 155.719 109.09 155.719 107.969V97.8125C155.719 90.8656 149.905 85.2756 142.877 85.6413Z" fill="url(#paint1_linear_35_722)"/>
<defs>
<linearGradient id="paint0_linear_35_722" x1="100" y1="200" x2="100" y2="0" gradientUnits="userSpaceOnUse">
<stop stop-color="#ADDCFF"/>
<stop offset="0.5028" stop-color="#EAF6FF"/>
<stop offset="1" stop-color="#EAF6FF"/>
</linearGradient>
<linearGradient id="paint1_linear_35_722" x1="99.8594" y1="154.688" x2="99.8594" y2="44.9996" gradientUnits="userSpaceOnUse">
<stop stop-color="#00C0FF"/>
<stop offset="1" stop-color="#5558FF"/>
</linearGradient>
</defs>
</svg>
