<svg width="200" height="200" viewBox="0 0 200 200" fill="none" xmlns="http://www.w3.org/2000/svg">
<path d="M100 200C155.228 200 200 155.228 200 100C200 44.7715 155.228 0 100 0C44.7715 0 0 44.7715 0 100C0 155.228 44.7715 200 100 200Z" fill="url(#paint0_linear_61_48)"/>
<path d="M125.958 120.728L118.292 119.023L105.067 134.165L110.594 138.319L125.958 120.728ZM151.849 154.674L148.037 139.4C146.111 131.674 140.652 125.561 133.424 122.718L113.692 145.309C113.009 146.092 112.048 146.495 111.08 146.495C110.357 146.495 109.626 146.268 109.007 145.8L100 139.032L90.9926 145.8C90.3734 146.268 89.643 146.495 88.9191 146.495C87.9484 146.495 86.991 146.092 86.3078 145.309L66.5754 122.718C59.3476 125.561 53.889 131.674 51.9629 139.4L48.1508 154.674C47.8902 155.711 48.1238 156.809 48.7801 157.649C49.4363 158.493 50.4441 158.984 51.5098 158.984H148.49C149.555 158.984 150.563 158.493 151.22 157.649C151.876 156.809 152.109 155.711 151.849 154.674ZM74.0422 120.728L89.4062 138.319L94.9332 134.164L81.7082 119.023L74.0422 120.728ZM73.4137 72.2426C76.5484 62.2629 86.1551 58.3641 93.073 58.3641H96.293L98.3699 60.8309C98.4512 60.9258 108.273 72.243 120.782 72.243H127.709C129.755 72.243 131.714 72.6664 133.523 73.5066C133.545 73.5168 133.56 73.5352 133.582 73.5453L133.445 71.8836C131.97 54.2879 117.592 41.0156 100 41.0156C82.4082 41.0156 68.0297 54.2879 66.5515 71.8938L66.4176 73.5352C66.4223 73.5332 66.425 73.5293 66.4297 73.527C69.9152 71.9176 72.7203 72.3004 73.4137 72.2426ZM67.793 98.3328C69.0953 99.4238 70.6512 100 72.2914 100V79.182C71.243 79.182 70.2824 79.3887 69.3824 79.8055C66.9402 80.9574 65.3641 83.4379 65.3641 86.1215V93.0609C65.3641 95.043 66.2605 96.9473 67.793 98.3328ZM130.618 79.8055C129.725 79.3922 128.744 79.182 127.709 79.182V100C129.373 100 130.922 99.4105 132.211 98.3328C133.753 96.9336 134.636 95.0121 134.636 93.0605V86.1211C134.636 83.4379 133.049 80.9539 130.618 79.8055ZM80.1816 112.262C78.6133 110.626 77.1953 108.88 76.0976 106.939H72.291C69.2066 106.939 66.3121 105.905 63.8469 104.007L62.7934 116.843C64.7394 115.968 66.7309 115.234 68.8648 114.791L80.1816 112.262ZM123.902 106.939C122.804 108.881 121.387 110.626 119.818 112.261L131.287 114.824C133.308 115.241 135.267 115.966 137.205 116.84L136.15 103.982C133.557 105.936 130.72 106.939 127.708 106.939H123.902ZM110.391 117.531V111.121L111.886 110.087C117.537 106.17 120.781 99.9629 120.781 93.0605V79.1816C104.82 79.1816 93.1641 65.4113 93.0726 65.3031C92.5078 65.3031 79.2183 65.4625 79.2183 79.1816V93.0605C79.2183 94.2527 79.4402 95.3875 79.6297 96.5301H96.5363C98.4508 96.5301 100 98.082 100 99.9996C100 101.918 98.4508 103.469 96.5363 103.469H82.082C83.5758 106.029 85.5586 108.316 88.1141 110.087L89.609 111.12V117.531L99.9996 129.427L110.391 117.531Z" fill="url(#paint1_linear_61_48)"/>
<defs>
<linearGradient id="paint0_linear_61_48" x1="100" y1="200" x2="100" y2="0" gradientUnits="userSpaceOnUse">
<stop stop-color="#ADDCFF"/>
<stop offset="0.5028" stop-color="#EAF6FF"/>
<stop offset="1" stop-color="#EAF6FF"/>
</linearGradient>
<linearGradient id="paint1_linear_61_48" x1="100" y1="158.984" x2="100" y2="41.0156" gradientUnits="userSpaceOnUse">
<stop stop-color="#00C0FF"/>
<stop offset="1" stop-color="#5558FF"/>
</linearGradient>
</defs>
</svg>
